REM DIRINDEX 1\5,1\2\6,1\2\7,1\3\8,1\3\9,1\4\10,1\4\11,1\4\12
REM DIRNAME cjc026,folder01,folder02,folder03,folder04,folder05,folder06,folder07,folder08,folder09,folder10,folder11
TITLE ""
FILE "EJE_DB3000_5th_3B_09.mp3" MP3
  TRACK 01 AUDIO
    TITLE "0:"
    INDEX 01 00:00:00
  TRACK 02 AUDIO
    TITLE "10:cjc026_08613"
    INDEX 01 00:00:10
  TRACK 03 AUDIO
    TITLE "0:"
    INDEX 01 00:01:41
  TRACK 04 AUDIO
    TITLE "11:cjc026_08614"
    INDEX 01 00:02:03
  TRACK 05 AUDIO
    TITLE "0:"
    INDEX 01 00:03:34
  TRACK 06 AUDIO
    TITLE "12:cjc026_08615"
    INDEX 01 00:03:72
  TRACK 07 AUDIO
    TITLE "0:"
    INDEX 01 00:05:27
  TRACK 08 AUDIO
    TITLE "10:cjc026_08616"
    INDEX 01 00:05:67
  TRACK 09 AUDIO
    TITLE "0:"
    INDEX 01 00:07:15
  TRACK 10 AUDIO
    TITLE "11:cjc026_08617"
    INDEX 01 00:07:52
  TRACK 11 AUDIO
    TITLE "0:"
    INDEX 01 00:09:10
  TRACK 12 AUDIO
    TITLE "12:cjc026_08618"
    INDEX 01 00:09:48
  TRACK 13 AUDIO
    TITLE "0:"
    INDEX 01 00:10:70
  TRACK 14 AUDIO
    TITLE "10:cjc026_08619"
    INDEX 01 00:11:33
  TRACK 15 AUDIO
    TITLE "0:"
    INDEX 01 00:12:58
  TRACK 16 AUDIO
    TITLE "11:cjc026_08620"
    INDEX 01 00:13:18
  TRACK 17 AUDIO
    TITLE "0:"
    INDEX 01 00:14:38
  TRACK 18 AUDIO
    TITLE "12:cjc026_08621"
    INDEX 01 00:14:73
  TRACK 19 AUDIO
    TITLE "0:"
    INDEX 01 00:16:23
  TRACK 20 AUDIO
    TITLE "10:cjc026_08622"
    INDEX 01 00:16:58
  TRACK 21 AUDIO
    TITLE "0:"
    INDEX 01 00:18:02
  TRACK 22 AUDIO
    TITLE "11:cjc026_08623"
    INDEX 01 00:18:37
  TRACK 23 AUDIO
    TITLE "0:"
    INDEX 01 00:19:54
  TRACK 24 AUDIO
    TITLE "12:cjc026_08624"
    INDEX 01 00:20:17
  TRACK 25 AUDIO
    TITLE "0:"
    INDEX 01 00:21:36
  TRACK 26 AUDIO
    TITLE "10:cjc026_08625"
    INDEX 01 00:21:72
  TRACK 27 AUDIO
    TITLE "0:"
    INDEX 01 00:23:30
  TRACK 28 AUDIO
    TITLE "11:cjc026_08626"
    INDEX 01 00:23:65
  TRACK 29 AUDIO
    TITLE "0:"
    INDEX 01 00:25:12
  TRACK 30 AUDIO
    TITLE "12:cjc026_08627"
    INDEX 01 00:25:47
  TRACK 31 AUDIO
    TITLE "0:"
    INDEX 01 00:27:05
  TRACK 32 AUDIO
    TITLE "10:cjc026_08628"
    INDEX 01 00:27:40
  TRACK 33 AUDIO
    TITLE "0:"
    INDEX 01 00:28:68
  TRACK 34 AUDIO
    TITLE "11:cjc026_08629"
    INDEX 01 00:29:30
  TRACK 35 AUDIO
    TITLE "0:"
    INDEX 01 00:30:74
  TRACK 36 AUDIO
    TITLE "12:cjc026_08630"
    INDEX 01 00:31:34
  TRACK 37 AUDIO
    TITLE "0:"
    INDEX 01 00:32:62
  TRACK 38 AUDIO
    TITLE "10:cjc026_08631"
    INDEX 01 00:33:22
  TRACK 39 AUDIO
    TITLE "0:"
    INDEX 01 00:34:47
  TRACK 40 AUDIO
    TITLE "11:cjc026_08632"
    INDEX 01 00:35:12
  TRACK 41 AUDIO
    TITLE "0:"
    INDEX 01 00:36:45
  TRACK 42 AUDIO
    TITLE "12:cjc026_08633"
    INDEX 01 00:37:06
  TRACK 43 AUDIO
    TITLE "0:"
    INDEX 01 00:38:30
  TRACK 44 AUDIO
    TITLE "10:cjc026_08634"
    INDEX 01 00:38:68
  TRACK 45 AUDIO
    TITLE "0:"
    INDEX 01 00:40:21
  TRACK 46 AUDIO
    TITLE "11:cjc026_08635"
    INDEX 01 00:40:61
  TRACK 47 AUDIO
    TITLE "0:"
    INDEX 01 00:43:20
  TRACK 48 AUDIO
    TITLE "12:cjc026_08636"
    INDEX 01 00:43:55
  TRACK 49 AUDIO
    TITLE "0:"
    INDEX 01 00:45:08
  TRACK 50 AUDIO
    TITLE "10:cjc026_08637"
    INDEX 01 00:45:45
  TRACK 51 AUDIO
    TITLE "0:"
    INDEX 01 00:46:60
  TRACK 52 AUDIO
    TITLE "11:cjc026_08638"
    INDEX 01 00:47:20
  TRACK 53 AUDIO
    TITLE "0:"
    INDEX 01 00:48:42
  TRACK 54 AUDIO
    TITLE "12:cjc026_08639"
    INDEX 01 00:49:05
  TRACK 55 AUDIO
    TITLE "0:"
    INDEX 01 00:50:21
  TRACK 56 AUDIO
    TITLE "10:cjc026_08640"
    INDEX 01 00:50:57
  TRACK 57 AUDIO
    TITLE "0:"
    INDEX 01 00:52:09
  TRACK 58 AUDIO
    TITLE "11:cjc026_08641"
    INDEX 01 00:52:47
  TRACK 59 AUDIO
    TITLE "0:"
    INDEX 01 00:54:05
  TRACK 60 AUDIO
    TITLE "12:cjc026_08642"
    INDEX 01 00:54:40
  TRACK 61 AUDIO
    TITLE "0:"
    INDEX 01 00:55:68
  TRACK 62 AUDIO
    TITLE "10:cjc026_08643"
    INDEX 01 00:56:30
  TRACK 63 AUDIO
    TITLE "0:"
    INDEX 01 00:57:69
  TRACK 64 AUDIO
    TITLE "11:cjc026_08644"
    INDEX 01 00:58:32
  TRACK 65 AUDIO
    TITLE "0:"
    INDEX 01 00:59:73
  TRACK 66 AUDIO
    TITLE "12:cjc026_08645"
    INDEX 01 01:00:33
  TRACK 67 AUDIO
    TITLE "0:"
    INDEX 01 01:01:71
